REM DIRINDEX 1\2,1\3,1\4,1\5
REM DIRNAME folder01,folder02,folder03,folder04,folder05
TITLE ""
FILE "173.mp3" MP3
  TRACK 01 AUDIO
    TITLE "0:"
    INDEX 01 00:00:00
  TRACK 02 AUDIO
    TITLE "2:cjc046_5269"
    INDEX 01 00:00:13
  TRACK 03 AUDIO
    TITLE "0:"
    INDEX 01 00:01:11
  TRACK 04 AUDIO
    TITLE "3:cjc046_5270"
    INDEX 01 00:01:36
  TRACK 05 AUDIO
    TITLE "0:"
    INDEX 01 00:03:02
  TRACK 06 AUDIO
    TITLE "4:cjc046_5271"
    INDEX 01 00:03:21
  TRACK 07 AUDIO
    TITLE "0:"
    INDEX 01 00:04:19
  TRACK 08 AUDIO
    TITLE "2:cjc046_5272"
    INDEX 01 00:05:32
  TRACK 09 AUDIO
    TITLE "0:"
    INDEX 01 00:06:35
  TRACK 10 AUDIO
    TITLE "3:cjc046_5273"
    INDEX 01 00:06:61
  TRACK 11 AUDIO
    TITLE "0:"
    INDEX 01 00:08:01
  TRACK 12 AUDIO
    TITLE "4:cjc046_5274"
    INDEX 01 00:08:17
  TRACK 13 AUDIO
    TITLE "0:"
    INDEX 01 00:09:20
  TRACK 14 AUDIO
    TITLE "2:cjc046_5275"
    INDEX 01 00:10:27
  TRACK 15 AUDIO
    TITLE "0:"
    INDEX 01 00:11:35
  TRACK 16 AUDIO
    TITLE "3:cjc046_5276"
    INDEX 01 00:11:54
  TRACK 17 AUDIO
    TITLE "0:"
    INDEX 01 00:13:00
  TRACK 18 AUDIO
    TITLE "4:cjc046_5277"
    INDEX 01 00:13:18
  TRACK 19 AUDIO
    TITLE "0:"
    INDEX 01 00:14:25
  TRACK 20 AUDIO
    TITLE "2:cjc046_5278"
    INDEX 01 00:15:30
  TRACK 21 AUDIO
    TITLE "0:"
    INDEX 01 00:16:61
  TRACK 22 AUDIO
    TITLE "3:cjc046_5279"
    INDEX 01 00:17:02
  TRACK 23 AUDIO
    TITLE "0:"
    INDEX 01 00:18:35
  TRACK 24 AUDIO
    TITLE "4:cjc046_5280"
    INDEX 01 00:18:52
  TRACK 25 AUDIO
    TITLE "0:"
    INDEX 01 00:20:08
  TRACK 26 AUDIO
    TITLE "2:cjc046_5281"
    INDEX 01 00:21:17
  TRACK 27 AUDIO
    TITLE "0:"
    INDEX 01 00:22:21
  TRACK 28 AUDIO
    TITLE "3:cjc046_5282"
    INDEX 01 00:22:40
  TRACK 29 AUDIO
    TITLE "0:"
    INDEX 01 00:23:34
  TRACK 30 AUDIO
    TITLE "4:cjc046_5283"
    INDEX 01 00:23:55
  TRACK 31 AUDIO
    TITLE "0:"
    INDEX 01 00:24:59
  TRACK 32 AUDIO
    TITLE "2:cjc046_5284"
    INDEX 01 00:25:68
  TRACK 33 AUDIO
    TITLE "0:"
    INDEX 01 00:27:14
  TRACK 34 AUDIO
    TITLE "3:cjc046_5285"
    INDEX 01 00:27:30
  TRACK 35 AUDIO
    TITLE "0:"
    INDEX 01 00:28:47
  TRACK 36 AUDIO
    TITLE "4:cjc046_5286"
    INDEX 01 00:28:66
  TRACK 37 AUDIO
    TITLE "0:"
    INDEX 01 00:30:10
  TRACK 38 AUDIO
    TITLE "2:cjc046_5287"
    INDEX 01 00:31:14
  TRACK 39 AUDIO
    TITLE "0:"
    INDEX 01 00:32:23
  TRACK 40 AUDIO
    TITLE "3:cjc046_5288"
    INDEX 01 00:32:45
  TRACK 41 AUDIO
    TITLE "0:"
    INDEX 01 00:33:58
  TRACK 42 AUDIO
    TITLE "4:cjc046_5289"
    INDEX 01 00:34:04
  TRACK 43 AUDIO
    TITLE "0:"
    INDEX 01 00:35:12
  TRACK 44 AUDIO
    TITLE "2:cjc046_5290"
    INDEX 01 00:36:23
  TRACK 45 AUDIO
    TITLE "0:"
    INDEX 01 00:37:34
  TRACK 46 AUDIO
    TITLE "3:cjc046_5291"
    INDEX 01 00:37:54
  TRACK 47 AUDIO
    TITLE "0:"
    INDEX 01 00:38:73
  TRACK 48 AUDIO
    TITLE "4:cjc046_5292"
    INDEX 01 00:39:15
  TRACK 49 AUDIO
    TITLE "0:"
    INDEX 01 00:40:28
  TRACK 50 AUDIO
    TITLE "2:cjc046_5293"
    INDEX 01 00:41:36
  TRACK 51 AUDIO
    TITLE "0:"
    INDEX 01 00:42:45
  TRACK 52 AUDIO
    TITLE "3:cjc046_5294"
    INDEX 01 00:42:61
  TRACK 53 AUDIO
    TITLE "0:"
    INDEX 01 00:44:22
  TRACK 54 AUDIO
    TITLE "4:cjc046_5295"
    INDEX 01 00:44:40
  TRACK 55 AUDIO
    TITLE "0:"
    INDEX 01 00:45:51
  TRACK 56 AUDIO
    TITLE "2:cjc046_5296"
    INDEX 01 00:46:54
  TRACK 57 AUDIO
    TITLE "0:"
    INDEX 01 00:47:66
  TRACK 58 AUDIO
    TITLE "3:cjc046_5297"
    INDEX 01 00:48:08
  TRACK 59 AUDIO
    TITLE "0:"
    INDEX 01 00:49:31
  TRACK 60 AUDIO
    TITLE "4:cjc046_5298"
    INDEX 01 00:49:47
  TRACK 61 AUDIO
    TITLE "0:"
    INDEX 01 00:50:62
  TRACK 62 AUDIO
    TITLE "2:cjc046_5299"
    INDEX 01 00:51:69
  TRACK 63 AUDIO
    TITLE "0:"
    INDEX 01 00:53:02
  TRACK 64 AUDIO
    TITLE "3:cjc046_5300"
    INDEX 01 00:53:23
  TRACK 65 AUDIO
    TITLE "0:"
    INDEX 01 00:54:46
  TRACK 66 AUDIO
    TITLE "4:cjc046_5301"
    INDEX 01 00:54:62
  TRACK 67 AUDIO
    TITLE "0:"
    INDEX 01 00:55:71
  TRACK 68 AUDIO
    TITLE "2:cjc046_5302"
    INDEX 01 00:57:01
  TRACK 69 AUDIO
    TITLE "0:"
    INDEX 01 00:58:18
  TRACK 70 AUDIO
    TITLE "3:cjc046_5303"
    INDEX 01 00:58:40
  TRACK 71 AUDIO
    TITLE "0:"
    INDEX 01 00:59:43
  TRACK 72 AUDIO
    TITLE "4:cjc046_5304"
    INDEX 01 00:59:57
  TRACK 73 AUDIO
    TITLE "0:"
    INDEX 01 01:01:01
  TRACK 74 AUDIO
    TITLE "2:cjc046_5305"
    INDEX 01 01:02:08
  TRACK 75 AUDIO
    TITLE "0:"
    INDEX 01 01:03:14
  TRACK 76 AUDIO
    TITLE "3:cjc046_5306"
    INDEX 01 01:03:31
  TRACK 77 AUDIO
    TITLE "0:"
    INDEX 01 01:04:41
  TRACK 78 AUDIO
    TITLE "4:cjc046_5307"
    INDEX 01 01:04:54
  TRACK 79 AUDIO
    TITLE "0:"
    INDEX 01 01:05:58
  TRACK 80 AUDIO
    TITLE "2:cjc046_5308"
    INDEX 01 01:06:69
  TRACK 81 AUDIO
    TITLE "0:"
    INDEX 01 01:08:11
  TRACK 82 AUDIO
    TITLE "3:cjc046_5309"
    INDEX 01 01:08:31
  TRACK 83 AUDIO
    TITLE "0:"
    INDEX 01 01:09:52
  TRACK 84 AUDIO
    TITLE "4:cjc046_5310"
    INDEX 01 01:09:73
  TRACK 85 AUDIO
    TITLE "0:"
    INDEX 01 01:11:17
  TRACK 86 AUDIO
    TITLE "2:cjc046_5311"
    INDEX 01 01:12:24
  TRACK 87 AUDIO
    TITLE "0:"
    INDEX 01 01:13:28
  TRACK 88 AUDIO
    TITLE "3:cjc046_5312"
    INDEX 01 01:13:49
  TRACK 89 AUDIO
    TITLE "0:"
    INDEX 01 01:14:33
  TRACK 90 AUDIO
    TITLE "4:cjc046_5313"
    INDEX 01 01:14:53
  TRACK 91 AUDIO
    TITLE "0:"
    INDEX 01 01:15:56
  TRACK 92 AUDIO
    TITLE "2:cjc046_5314"
    INDEX 01 01:16:63
  TRACK 93 AUDIO
    TITLE "0:"
    INDEX 01 01:18:13
  TRACK 94 AUDIO
    TITLE "3:cjc046_5315"
    INDEX 01 01:18:31
  TRACK 95 AUDIO
    TITLE "0:"
    INDEX 01 01:20:42
  TRACK 96 AUDIO
    TITLE "4:cjc046_5316"
    INDEX 01 01:20:53
  TRACK 97 AUDIO
    TITLE "0:"
    INDEX 01 01:22:03
  TRACK 98 AUDIO
    TITLE "2:cjc046_5317"
    INDEX 01 01:23:11
  TRACK 99 AUDIO
    TITLE "0:"
    INDEX 01 01:24:14
  TRACK 100 AUDIO
    TITLE "3:cjc046_5318"
    INDEX 01 01:24:36
  TRACK 101 AUDIO
    TITLE "0:"
    INDEX 01 01:25:70
  TRACK 102 AUDIO
    TITLE "4:cjc046_5319"
    INDEX 01 01:26:17
  TRACK 103 AUDIO
    TITLE "0:"
    INDEX 01 01:27:22
